<svg id="SvgjsSvg1038" width="288" height="288" xmlns="http://www.w3.org/2000/svg" version="1.1" xmlns:xlink="http://www.w3.org/1999/xlink" xmlns:svgjs="http://svgjs.com/svgjs"><defs id="SvgjsDefs1039"></defs><g id="SvgjsG1040" transform="matrix(1,0,0,1,0,0)"><svg xmlns="http://www.w3.org/2000/svg" enable-background="new 0 0 1024 1024" viewBox="0 0 1024 1024" width="288" height="288"><path d="M964.3,944.3c-8.1,0-16.1,0-24.2,0c-21.9,0-43.9,0-65.8,0c-32.5,0-64.9,0-97.4,0c-39.6,0-79.2,0-118.8,0
			c-43.4,0-86.8,0-130.1,0c-43.8,0-87.6,0-131.3,0c-40.8,0-81.6,0-122.5,0c-34.5,0-69,0-103.5,0c-24.7,0-49.4,0-74.2,0
			c-11.8,0-23.6-0.3-35.4,0c-0.5,0-1,0-1.5,0c6.7,6.7,13.3,13.3,20,20c0-8.1,0-16.1,0-24.2c0-21.9,0-43.9,0-65.8
			c0-32.5,0-64.9,0-97.4c0-39.6,0-79.2,0-118.8c0-43.4,0-86.8,0-130.1c0-43.8,0-87.6,0-131.3c0-40.8,0-81.6,0-122.5
			c0-34.5,0-69,0-103.5c0-24.7,0-49.4,0-74.2c0-11.8,0.2-23.6,0-35.4c0-0.5,0-1,0-1.5c0-10.5-9.2-20.5-20-20c-10.8,0.5-20,8.8-20,20
			c0,8.1,0,16.1,0,24.2c0,21.9,0,43.9,0,65.8c0,32.5,0,64.9,0,97.4c0,39.6,0,79.2,0,118.8c0,43.4,0,86.8,0,130.1
			c0,43.8,0,87.6,0,131.3c0,40.8,0,81.6,0,122.5c0,34.5,0,69,0,103.5c0,24.7,0,49.4,0,74.2c0,11.8-0.2,23.6,0,35.4c0,0.5,0,1,0,1.5
			c0,10.8,9.2,20,20,20c8.1,0,16.1,0,24.2,0c21.9,0,43.9,0,65.8,0c32.5,0,64.9,0,97.4,0c39.6,0,79.2,0,118.8,0
			c43.4,0,86.8,0,130.1,0c43.8,0,87.6,0,131.3,0c40.8,0,81.6,0,122.5,0c34.5,0,69,0,103.5,0c24.7,0,49.4,0,74.2,0
			c11.8,0,23.6,0.2,35.4,0c0.5,0,1,0,1.5,0c10.5,0,20.5-9.2,20-20C983.8,953.5,975.5,944.3,964.3,944.3L964.3,944.3z" fill="#fff" class="color000 svgShape"></path><path d="M306.2,442v310c0,7.6-6.2,13.7-13.7,13.7h-109c-7.6,0-13.7-6.2-13.7-13.7V442c0-7.6,6.2-13.7,13.7-13.7h109
		C300,428.3,306.2,434.4,306.2,442z" fill="#404040" class="color000 svgShape"></path><path d="M296.2,442c0,18.9,0,37.8,0,56.7c0,39.9,0,79.8,0,119.7c0,35.7,0,71.4,0,107.2c0,8.2,0.1,16.5,0,24.7
			c0,3.1-0.6,5-3.8,5.4c-3.6,0.4-7.5,0-11.1,0c-19.1,0-38.1,0-57.2,0c-9.1,0-18.2,0-27.2,0c-4.3,0-8.9,0.4-13.2,0
			c-3-0.3-3.9-1.9-4-4.9c-0.1-2.7,0-5.4,0-8.1c0-11.9,0-23.8,0-35.7c0-38.9,0-77.7,0-116.6c0-37.4,0-74.9,0-112.3
			c0-10.3,0-20.7,0-31c0-1.6-0.2-3.4,0-5.1c0.5-3.9,3.3-3.8,7-3.8c33.8,0,67.5,0,101.3,0C291.8,438.3,296,437.7,296.2,442
			c0.6,12.8,20.6,12.9,20,0c-0.7-13.9-11.1-23.6-24.9-23.7c-5.8-0.1-11.6,0-17.4,0c-20.6,0-41.3,0-61.9,0c-7.7,0-15.5,0-23.2,0
			c-7.9,0-15.5,0.7-21.7,6.5c-8.4,7.9-7.4,18.5-7.4,28.8c0,32.4,0,64.7,0,97.1c0,42.4,0,84.8,0,127.1c0,24.4-0.3,48.8,0,73.1
			c0.1,9.5,4.8,18.4,13.6,22.5c5.8,2.7,11.8,2.3,18,2.3c19.2,0,38.3,0,57.5,0c14.4,0,28.9,0.5,43.3,0c13.4-0.4,23.6-10.4,24-23.8
			c0.1-1.9,0-3.8,0-5.6c0-29.3,0-58.5,0-87.8c0-42.7,0-85.3,0-128c0-28.1,0-56.2,0-84.3c0-1.4,0-2.8,0-4.2
			C316.2,429.1,296.2,429.1,296.2,442z" fill="#404040" class="color000 svgShape"></path><path d="M257.9 428.3c0-26.2 0-52.4 0-78.6 0-3.8 0-7.6 0-11.4 0-10.5-9.2-20.5-20-20-10.8.5-20 8.8-20 20 0 26.2 0 52.4 0 78.6 0 3.8 0 7.6 0 11.4 0 10.5 9.2 20.5 20 20C248.8 447.8 257.9 439.5 257.9 428.3L257.9 428.3zM257.9 855.7c0-26.2 0-52.4 0-78.6 0-3.8 0-7.6 0-11.4 0-10.5-9.2-20.5-20-20-10.8.5-20 8.8-20 20 0 26.2 0 52.4 0 78.6 0 3.8 0 7.6 0 11.4 0 10.5 9.2 20.5 20 20C248.8 875.3 257.9 867 257.9 855.7L257.9 855.7zM590.3 226v310c0 7.6-6.2 13.7-13.7 13.7h-109c-7.6 0-13.7-6.2-13.7-13.7V226c0-7.6 6.2-13.7 13.7-13.7h109C584.1 212.3 590.3 218.4 590.3 226z" fill="#404040" class="color000 svgShape"></path><path d="M580.3,226c0,18.9,0,37.8,0,56.7c0,39.9,0,79.8,0,119.7c0,35.7,0,71.4,0,107.2c0,8.2,0.1,16.5,0,24.7
			c0,3.1-0.6,5-3.8,5.4c-3.6,0.4-7.5,0-11.1,0c-19.1,0-38.1,0-57.2,0c-9.1,0-18.2,0-27.2,0c-4.3,0-8.9,0.4-13.2,0
			c-3-0.3-3.9-1.9-4-4.9c-0.1-2.7,0-5.4,0-8.1c0-11.9,0-23.8,0-35.7c0-38.9,0-77.7,0-116.6c0-37.4,0-74.9,0-112.3
			c0-10.3,0-20.7,0-31c0-1.6-0.2-3.4,0-5.1c0.5-3.9,3.3-3.8,7-3.8c33.8,0,67.5,0,101.3,0C575.9,222.3,580,221.7,580.3,226
			c0.6,12.8,20.6,12.9,20,0c-0.7-13.9-11.1-23.6-24.9-23.7c-5.8-0.1-11.6,0-17.4,0c-20.6,0-41.3,0-61.9,0c-7.7,0-15.5,0-23.2,0
			c-7.9,0-15.5,0.7-21.7,6.5c-8.4,7.9-7.4,18.5-7.4,28.8c0,32.4,0,64.7,0,97.1c0,42.4,0,84.8,0,127.1c0,24.4-0.3,48.8,0,73.1
			c0.1,9.5,4.8,18.4,13.6,22.5c5.8,2.7,11.8,2.3,18,2.3c19.2,0,38.3,0,57.5,0c14.4,0,28.9,0.5,43.3,0c13.4-0.4,23.6-10.4,24-23.8
			c0.1-1.9,0-3.8,0-5.6c0-29.3,0-58.5,0-87.8c0-42.7,0-85.3,0-128c0-28.1,0-56.2,0-84.3c0-1.4,0-2.8,0-4.2
			C600.3,213.1,580.3,213.1,580.3,226z" fill="#404040" class="color000 svgShape"></path><path d="M542 212.3c0-26.2 0-52.4 0-78.6 0-3.8 0-7.6 0-11.4 0-10.5-9.2-20.5-20-20-10.8.5-20 8.8-20 20 0 26.2 0 52.4 0 78.6 0 3.8 0 7.6 0 11.4 0 10.5 9.2 20.5 20 20C532.8 231.8 542 223.5 542 212.3L542 212.3zM542 639.7c0-26.2 0-52.4 0-78.6 0-3.8 0-7.6 0-11.4 0-10.5-9.2-20.5-20-20-10.8.5-20 8.8-20 20 0 26.2 0 52.4 0 78.6 0 3.8 0 7.6 0 11.4 0 10.5 9.2 20.5 20 20C532.8 659.3 542 651 542 639.7L542 639.7zM874.3 297v310c0 7.6-6.2 13.7-13.7 13.7h-109c-7.6 0-13.7-6.2-13.7-13.7V297c0-7.6 6.2-13.7 13.7-13.7h109C868.2 283.3 874.3 289.4 874.3 297z" fill="#404040" class="color000 svgShape"></path><path d="M864.3,297c0,18.9,0,37.8,0,56.7c0,39.9,0,79.8,0,119.7c0,35.7,0,71.4,0,107.2c0,8.2,0.1,16.5,0,24.7
			c0,3.1-0.6,5-3.8,5.4c-3.6,0.4-7.5,0-11.1,0c-19.1,0-38.1,0-57.2,0c-9.1,0-18.2,0-27.2,0c-4.3,0-8.9,0.4-13.2,0
			c-3-0.3-3.9-1.9-4-4.9c-0.1-2.7,0-5.4,0-8.1c0-11.9,0-23.8,0-35.7c0-38.9,0-77.7,0-116.6c0-37.4,0-74.9,0-112.3
			c0-10.3,0-20.7,0-31c0-1.6-0.2-3.4,0-5.1c0.5-3.9,3.3-3.8,7-3.8c33.8,0,67.5,0,101.3,0C859.9,293.3,864.1,292.7,864.3,297
			c0.6,12.8,20.6,12.9,20,0c-0.7-13.9-11.1-23.6-24.9-23.7c-5.8-0.1-11.6,0-17.4,0c-20.6,0-41.3,0-61.9,0c-7.7,0-15.5,0-23.2,0
			c-7.9,0-15.5,0.7-21.7,6.5c-8.4,7.9-7.4,18.5-7.4,28.8c0,32.4,0,64.7,0,97.1c0,42.4,0,84.8,0,127.1c0,24.4-0.3,48.8,0,73.1
			c0.1,9.5,4.8,18.4,13.6,22.5c5.8,2.7,11.8,2.3,18,2.3c19.2,0,38.3,0,57.5,0c14.4,0,28.9,0.5,43.3,0c13.4-0.4,23.6-10.4,24-23.8
			c0.1-1.9,0-3.8,0-5.6c0-29.3,0-58.5,0-87.8c0-42.7,0-85.3,0-128c0-28.1,0-56.2,0-84.3c0-1.4,0-2.8,0-4.2
			C884.3,284.1,864.3,284.1,864.3,297z" fill="#404040" class="color000 svgShape"></path><path d="M826.1 283.3c0-26.2 0-52.4 0-78.6 0-3.8 0-7.6 0-11.4 0-10.5-9.2-20.5-20-20-10.8.5-20 8.8-20 20 0 26.2 0 52.4 0 78.6 0 3.8 0 7.6 0 11.4 0 10.5 9.2 20.5 20 20C816.9 302.8 826.1 294.5 826.1 283.3L826.1 283.3zM826.1 710.7c0-26.2 0-52.4 0-78.6 0-3.8 0-7.6 0-11.4 0-10.5-9.2-20.5-20-20-10.8.5-20 8.8-20 20 0 26.2 0 52.4 0 78.6 0 3.8 0 7.6 0 11.4 0 10.5 9.2 20.5 20 20C816.9 730.3 826.1 722 826.1 710.7L826.1 710.7z" fill="#404040" class="color000 svgShape"></path></svg></g></svg>