<svg id="SvgjsSvg1033" width="288" height="288" xmlns="http://www.w3.org/2000/svg" version="1.1" xmlns:xlink="http://www.w3.org/1999/xlink" xmlns:svgjs="http://svgjs.com/svgjs"><defs id="SvgjsDefs1034"></defs><g id="SvgjsG1035" transform="matrix(1,0,0,1,0,0)"><svg xmlns="http://www.w3.org/2000/svg" width="288" height="288" viewBox="0 0 16 16"><path d="M 7.5 2 C 7.223 2 7 2.223 7 2.5 L 7 11.5 C 7 11.777 7.223 12 7.5 12 L 9.5 12 C 9.777 12 10 11.777 10 11.5 L 10 2.5 C 10 2.223 9.777 2 9.5 2 L 7.5 2 z M 3.5 5 C 3.223 5 3 5.223 3 5.5 L 3 11.5 C 3 11.777 3.223 12 3.5 12 L 5.5 12 C 5.777 12 6 11.777 6 11.5 L 6 5.5 C 6 5.223 5.777 5 5.5 5 L 3.5 5 z M 11.5 8 C 11.223 8 11 8.223 11 8.5 L 11 11.5 C 11 11.777 11.223 12 11.5 12 L 13.5 12 C 13.777 12 14 11.777 14 11.5 L 14 8.5 C 14 8.223 13.777 8 13.5 8 L 11.5 8 z M 2.4003906 13 A 0.50005 0.50005 0 0 0 2.4511719 14 L 14.492188 14 A 0.50005 0.50005 0 1 0 14.492188 13 L 2.4511719 13 A 0.50005 0.50005 0 0 0 2.4003906 13 z " fill="#404040" class="color000 svgShape"></path></svg></g></svg>