<?xml version="1.0" encoding="UTF-8"?>
<!DOCTYPE svg PUBLIC "-//W3C//DTD SVG 1.1//EN" "http://www.w3.org/Graphics/SVG/1.1/DTD/svg11.dtd">
<!-- Creator: CorelDRAW X7 -->
<svg xmlns="http://www.w3.org/2000/svg" xml:space="preserve" width="500px" height="500px" version="1.1" style="shape-rendering:geometricPrecision; text-rendering:geometricPrecision; image-rendering:optimizeQuality; fill-rule:evenodd; clip-rule:evenodd"
viewBox="0 0 500 500"
 xmlns:xlink="http://www.w3.org/1999/xlink">
 <defs>
  <style type="text/css">
   <![CDATA[
    .str0 {stroke:#404040;stroke-width:14.9989;stroke-linecap:round;stroke-linejoin:round}
    .fil0 {fill:none}
   ]]>
  </style>
 </defs>
 <g id="Layer_x0020_1">
  <metadata id="CorelCorpID_0Corel-Layer"/>
  <g id="_427802720">
   <line class="fil0 str0" x1="80" y1="394" x2="80" y2= "419" />
   <line class="fil0 str0" x1="100" y1="379" x2="100" y2= "419" />
   <line class="fil0 str0" x1="120" y1="359" x2="120" y2= "419" />
   <line class="fil0 str0" x1="140" y1="319" x2="140" y2= "419" />
   <line class="fil0 str0" x1="160" y1="269" x2="160" y2= "419" />
   <line class="fil0 str0" x1="180" y1="219" x2="180" y2= "419" />
   <line class="fil0 str0" x1="200" y1="269" x2="200" y2= "419" />
   <line class="fil0 str0" x1="220" y1="294" x2="220" y2= "419" />
   <line class="fil0 str0" x1="240" y1="269" x2="240" y2= "419" />
   <line class="fil0 str0" x1="260" y1="219" x2="260" y2= "419" />
   <line class="fil0 str0" x1="280" y1="169" x2="280" y2= "419" />
   <line class="fil0 str0" x1="300" y1="144" x2="300" y2= "419" />
   <line class="fil0 str0" x1="320" y1="81" x2="320" y2= "419" />
   <line class="fil0 str0" x1="340" y1="169" x2="340" y2= "419" />
   <line class="fil0 str0" x1="360" y1="219" x2="360" y2= "419" />
   <line class="fil0 str0" x1="380" y1="194" x2="380" y2= "419" />
   <line class="fil0 str0" x1="400" y1="169" x2="400" y2= "419" />
   <line class="fil0 str0" x1="420" y1="119" x2="420" y2= "419" />
  </g>
 </g>
</svg>
